<svg width="28" height="47" viewBox="0 0 28 47" fill="currentColor" xmlns="http://www.w3.org/2000/svg">
<g id="Group">
<g id="Vector">
<path d="M13.5366 46.05C6.07166 46.05 0 39.957 0 32.4657C0 27.0229 3.32403 22.0454 8.31441 19.9448V5.83643C8.31441 5.67987 8.32522 5.5233 8.34906 5.36673C7.27861 5.12971 6.47471 4.16857 6.47471 3.02259V2.40068C6.47471 1.07857 7.54731 0 8.86695 0H18.2128C19.5324 0 20.6051 1.07639 20.6051 2.40068V3.02259C20.6051 4.1664 19.8011 5.12754 18.7307 5.36673C18.7524 5.5233 18.7654 5.67987 18.7654 5.83643V19.9448C23.7536 22.0454 27.0776 27.0229 27.0776 32.4657C27.0776 39.957 21.006 46.05 13.541 46.05H13.5366ZM8.86264 1.23513C8.22123 1.23513 7.69899 1.7592 7.69899 2.40286V3.02477C7.69899 3.66843 8.22123 4.19249 8.86264 4.19249H9.12482C9.32851 4.19249 9.51703 4.29252 9.63187 4.46214C9.74672 4.62958 9.77057 4.84485 9.69689 5.03403C9.59288 5.3015 9.54085 5.57114 9.54085 5.83861V20.3645C9.54085 20.6189 9.38485 20.8494 9.14649 20.9407C4.40964 22.7586 1.22862 27.3925 1.22862 32.4679C1.22862 39.2785 6.7499 44.8192 13.5366 44.8192C20.3234 44.8192 25.8447 39.2785 25.8447 32.4679C25.8447 27.3925 22.6636 22.7586 17.929 20.9407C17.6906 20.8494 17.5346 20.6211 17.5346 20.3645V5.83861C17.5346 5.57332 17.4826 5.3015 17.3764 5.03186C17.3027 4.84268 17.3266 4.6274 17.4414 4.45996C17.5562 4.29252 17.7448 4.19249 17.9484 4.19249H18.2106C18.852 4.19249 19.3743 3.66843 19.3743 3.02477V2.40286C19.3743 1.7592 18.852 1.23513 18.2106 1.23513H8.86478H8.86264Z" />
<path d="M13.5366 46.05C6.07166 46.05 0 39.957 0 32.4657C0 27.0229 3.32403 22.0454 8.31441 19.9448V5.83643C8.31441 5.67987 8.32522 5.5233 8.34906 5.36673C7.27861 5.12971 6.47471 4.16857 6.47471 3.02259V2.40068C6.47471 1.07857 7.54731 0 8.86695 0H18.2128C19.5324 0 20.6051 1.07639 20.6051 2.40068V3.02259C20.6051 4.1664 19.8011 5.12754 18.7307 5.36673C18.7524 5.5233 18.7654 5.67987 18.7654 5.83643V19.9448C23.7536 22.0454 27.0776 27.0229 27.0776 32.4657C27.0776 39.957 21.006 46.05 13.541 46.05H13.5366ZM8.86264 1.23513C8.22123 1.23513 7.69899 1.7592 7.69899 2.40286V3.02477C7.69899 3.66843 8.22123 4.19249 8.86264 4.19249H9.12482C9.32851 4.19249 9.51703 4.29252 9.63187 4.46214C9.74672 4.62958 9.77057 4.84485 9.69689 5.03403C9.59288 5.3015 9.54085 5.57114 9.54085 5.83861V20.3645C9.54085 20.6189 9.38485 20.8494 9.14649 20.9407C4.40964 22.7586 1.22862 27.3925 1.22862 32.4679C1.22862 39.2785 6.7499 44.8192 13.5366 44.8192C20.3234 44.8192 25.8447 39.2785 25.8447 32.4679C25.8447 27.3925 22.6636 22.7586 17.929 20.9407C17.6906 20.8494 17.5346 20.6211 17.5346 20.3645V5.83861C17.5346 5.57332 17.4826 5.3015 17.3764 5.03186C17.3027 4.84268 17.3266 4.6274 17.4414 4.45996C17.5562 4.29252 17.7448 4.19249 17.9484 4.19249H18.2106C18.852 4.19249 19.3743 3.66843 19.3743 3.02477V2.40286C19.3743 1.7592 18.852 1.23513 18.2106 1.23513H8.86478H8.86264Z" stroke="currentColor"/>
</g>
<g id="Vector_2">
<path d="M12.9675 42.2743C7.77778 42.2743 3.55664 38.0383 3.55664 32.8303C3.55664 31.6713 3.77335 30.5253 4.19806 29.4228C4.32158 29.1054 4.67693 28.9488 4.9933 29.0706C5.30967 29.1945 5.46785 29.5511 5.34434 29.8686C4.9738 30.8276 4.78745 31.8257 4.78745 32.8303C4.78745 37.3577 8.45819 41.0414 12.9697 41.0414C13.3099 41.0414 13.5829 41.3175 13.5829 41.6568C13.5829 41.996 13.3077 42.2721 12.9697 42.2721L12.9675 42.2743Z" />
<path d="M12.9675 42.2743C7.77778 42.2743 3.55664 38.0383 3.55664 32.8303C3.55664 31.6713 3.77335 30.5253 4.19806 29.4228C4.32158 29.1054 4.67693 28.9488 4.9933 29.0706C5.30967 29.1945 5.46785 29.5511 5.34434 29.8686C4.9738 30.8276 4.78745 31.8257 4.78745 32.8303C4.78745 37.3577 8.45819 41.0414 12.9697 41.0414C13.3099 41.0414 13.5829 41.3175 13.5829 41.6568C13.5829 41.996 13.3077 42.2721 12.9697 42.2721L12.9675 42.2743Z" stroke="currentColor"/>
</g>
</g>
</svg>
