<svg width="34" height="47" viewBox="0 0 34 47" fill="none" xmlns="http://www.w3.org/2000/svg">
<g id="Group">
<g id="Vector">
<path d="M16.7996 46.05C7.53628 46.05 0 38.2501 0 28.6648C0 25.3627 0.898809 22.1494 2.59856 19.3756C3.00587 18.7015 14.9178 2.15208 16.2762 0.268726C16.3968 0.100203 16.5925 0 16.7996 0C17.0067 0 17.2023 0.100203 17.3229 0.268726C17.4388 0.429814 17.6317 0.697904 17.8879 1.05396C20.6308 4.86576 30.6283 18.7595 31.0029 19.3801C32.7004 22.1494 33.5992 25.3627 33.5992 28.6648C33.5992 38.2501 26.0629 46.05 16.7996 46.05ZM16.7985 1.75058C11.5081 9.09945 4.00703 19.5487 3.69987 20.0474C2.12299 22.6208 1.29019 25.5995 1.29019 28.6625C1.29019 37.5373 8.24849 44.7565 16.7996 44.7565C25.3507 44.7565 32.309 37.5373 32.309 28.6625C32.309 25.5972 31.4762 22.6185 29.8993 20.0497C29.5899 19.5464 22.0888 9.09718 16.7985 1.75058Z" fill="#575656"/>
<path d="M16.7996 46.05C7.53628 46.05 0 38.2501 0 28.6648C0 25.3627 0.898809 22.1494 2.59856 19.3756C3.00587 18.7015 14.9178 2.15208 16.2762 0.268726C16.3968 0.100203 16.5925 0 16.7996 0C17.0067 0 17.2023 0.100203 17.3229 0.268726C17.4388 0.429814 17.6317 0.697904 17.8879 1.05396C20.6308 4.86576 30.6283 18.7595 31.0029 19.3801C32.7004 22.1494 33.5992 25.3627 33.5992 28.6648C33.5992 38.2501 26.0629 46.05 16.7996 46.05ZM16.7985 1.75058C11.5081 9.09945 4.00703 19.5487 3.69987 20.0474C2.12299 22.6208 1.29019 25.5995 1.29019 28.6625C1.29019 37.5373 8.24849 44.7565 16.7996 44.7565C25.3507 44.7565 32.309 37.5373 32.309 28.6625C32.309 25.5972 31.4762 22.6185 29.8993 20.0497C29.5899 19.5464 22.0888 9.09718 16.7985 1.75058Z" stroke="#575656"/>
</g>
<g id="Vector_2">
<path d="M16.1994 40.6599C10.033 40.6599 5.01562 35.4084 5.01562 28.9521C5.01562 26.7067 5.62316 24.5296 6.77454 22.653C6.96112 22.3501 7.35933 22.2545 7.66196 22.4412C7.9646 22.628 8.06015 23.0242 7.87356 23.3294C6.84734 25.001 6.30581 26.9458 6.30581 28.9544C6.30581 34.6979 10.7452 39.3709 16.1994 39.3709C16.5567 39.3709 16.8434 39.6602 16.8434 40.0154C16.8434 40.3707 16.5544 40.6599 16.1994 40.6599Z" fill="#575656"/>
<path d="M16.1994 40.6599C10.033 40.6599 5.01562 35.4084 5.01562 28.9521C5.01562 26.7067 5.62316 24.5296 6.77454 22.653C6.96112 22.3501 7.35933 22.2545 7.66196 22.4412C7.9646 22.628 8.06015 23.0242 7.87356 23.3294C6.84734 25.001 6.30581 26.9458 6.30581 28.9544C6.30581 34.6979 10.7452 39.3709 16.1994 39.3709C16.5567 39.3709 16.8434 39.6602 16.8434 40.0154C16.8434 40.3707 16.5544 40.6599 16.1994 40.6599Z" stroke="#575656"/>
</g>
</g>
</svg>
