<svg width="46" height="34" viewBox="0 0 46 34" fill="none" xmlns="http://www.w3.org/2000/svg">
<g id="Group">
<g id="Vector">
<path d="M20.1714 33.6445C16.9406 33.6445 14.3027 32.868 12.3433 31.9792C8.40308 30.1921 6.3199 27.6309 6.2342 27.5234C6.1342 27.3968 6.07942 27.2391 6.08656 27.079C6.09132 26.8807 6.25563 22.1836 8.80308 17.3217C11.172 12.8014 16.1169 7.32539 26.2281 6.90251C33.8561 6.58475 38.4701 4.80243 40.9961 3.36653C43.68 1.83928 44.6302 0.370337 44.6618 0.321492L44.6625 0.320344C44.8197 0.0670917 45.1221 -0.0523668 45.4077 0.0216974C45.6934 0.0981509 45.8982 0.349017 45.9124 0.645275L45.9125 0.645795C45.9223 0.892335 46.1492 6.58236 44.2863 13.2601C41.8008 22.1717 36.7369 28.5006 29.6398 31.5563C26.09 33.0854 22.9188 33.6469 20.1737 33.6469L20.1714 33.6445ZM7.44836 26.8616C7.99357 27.4661 9.88633 29.3918 12.9575 30.7703C17.8572 32.9707 23.2902 32.8154 29.1065 30.3092C35.9108 27.3777 40.5795 21.5171 42.9864 12.8922C44.1864 8.58687 44.4887 4.64475 44.5578 2.46821C42.4341 4.44644 37.2607 7.79606 26.2876 8.25478C18.7024 8.57254 13.2313 11.8194 10.022 17.907C7.93168 21.8754 7.52455 25.8319 7.45075 26.8592L7.44836 26.8616Z" fill="#575656"/>
<path d="M20.1714 33.6445C16.9406 33.6445 14.3027 32.868 12.3433 31.9792C8.40308 30.1921 6.3199 27.6309 6.2342 27.5234C6.1342 27.3968 6.07942 27.2391 6.08656 27.079C6.09132 26.8807 6.25563 22.1836 8.80308 17.3217C11.172 12.8014 16.1169 7.32539 26.2281 6.90251C33.8561 6.58475 38.4701 4.80243 40.9961 3.36653C43.68 1.83928 44.6302 0.370337 44.6618 0.321492L44.6625 0.320344C44.8197 0.0670917 45.1221 -0.0523668 45.4077 0.0216974C45.6934 0.0981509 45.8982 0.349017 45.9124 0.645275L45.9125 0.645795C45.9223 0.892335 46.1492 6.58236 44.2863 13.2601C41.8008 22.1717 36.7369 28.5006 29.6398 31.5563C26.09 33.0854 22.9188 33.6469 20.1737 33.6469L20.1714 33.6445ZM7.44836 26.8616C7.99357 27.4661 9.88633 29.3918 12.9575 30.7703C17.8572 32.9707 23.2902 32.8154 29.1065 30.3092C35.9108 27.3777 40.5795 21.5171 42.9864 12.8922C44.1864 8.58687 44.4887 4.64475 44.5578 2.46821C42.4341 4.44644 37.2607 7.79606 26.2876 8.25478C18.7024 8.57254 13.2313 11.8194 10.022 17.907C7.93168 21.8754 7.52455 25.8319 7.45075 26.8592L7.44836 26.8616Z" stroke="#575656"/>
</g>
<g id="Vector_2">
<path d="M0.673357 28.5214C0.32338 28.5214 0.0282042 28.2514 0.00201553 27.8955C-0.026554 27.5228 0.251966 27.1978 0.623369 27.1668C12.4702 26.2422 21.8291 21.6765 27.5954 18.0091C33.8568 14.0263 37.3542 10.2108 37.3875 10.1726C37.6375 9.89547 38.0661 9.87635 38.3398 10.1272C38.616 10.3781 38.6351 10.8081 38.3851 11.0829C38.2399 11.243 34.7568 15.0465 28.3572 19.1272C22.4552 22.8878 12.8701 27.5705 0.72811 28.5167H0.67574L0.673357 28.5214Z" fill="#575656"/>
<path d="M0.673357 28.5214C0.32338 28.5214 0.0282042 28.2514 0.00201553 27.8955C-0.026554 27.5228 0.251966 27.1978 0.623369 27.1668C12.4702 26.2422 21.8291 21.6765 27.5954 18.0091C33.8568 14.0263 37.3542 10.2108 37.3875 10.1726C37.6375 9.89547 38.0661 9.87635 38.3398 10.1272C38.616 10.3781 38.6351 10.8081 38.3851 11.0829C38.2399 11.243 34.7568 15.0465 28.3572 19.1272C22.4552 22.8878 12.8701 27.5705 0.72811 28.5167H0.67574L0.673357 28.5214Z" stroke="#575656"/>
</g>
</g>
</svg>
