<svg width="21" height="47" viewBox="0 0 21 47" fill="none" xmlns="http://www.w3.org/2000/svg">
<g id="Group">
<g id="Vector">
<path d="M0.577625 9.11494C0.258261 9.11494 0.00195312 8.8557 0.00195312 8.53726V3.48296C0.00195312 3.16248 0.260295 2.90527 0.577625 2.90527C0.894954 2.90527 1.15329 3.16452 1.15329 3.48296V8.53726C1.15329 8.85774 0.894954 9.11494 0.577625 9.11494Z" fill="#575656"/>
<path d="M0.577625 9.11494C0.258261 9.11494 0.00195312 8.8557 0.00195312 8.53726V3.48296C0.00195312 3.16248 0.260295 2.90527 0.577625 2.90527C0.894954 2.90527 1.15329 3.16452 1.15329 3.48296V8.53726C1.15329 8.85774 0.894954 9.11494 0.577625 9.11494Z" stroke="#575656"/>
</g>
<g id="Group_2">
<g id="Vector_2">
<path d="M10.2989 38.3829C10.183 38.3829 10.067 38.3482 9.96736 38.2788L3.56384 33.7797C1.33238 32.212 0 29.6461 0 26.9127V23.4976C0 23.2812 0.120021 23.0832 0.311232 22.9852C0.502442 22.8852 0.732296 22.9016 0.909267 23.024L7.31279 27.5231C9.54426 29.0908 10.8766 31.6588 10.8766 34.3901V37.8052C10.8766 38.0216 10.7566 38.2196 10.5654 38.3176C10.482 38.3604 10.3905 38.3829 10.2989 38.3829ZM1.15337 24.606V26.9107C1.15337 29.2664 2.30063 31.4791 4.22494 32.8305L9.72123 36.6927V34.388C9.72123 32.0323 8.57396 29.8196 6.64965 28.4682L1.15337 24.606Z" fill="#575656"/>
<path d="M10.2989 38.3829C10.183 38.3829 10.067 38.3482 9.96736 38.2788L3.56384 33.7797C1.33238 32.212 0 29.6461 0 26.9127V23.4976C0 23.2812 0.120021 23.0832 0.311232 22.9852C0.502442 22.8852 0.732296 22.9016 0.909267 23.024L7.31279 27.5231C9.54426 29.0908 10.8766 31.6588 10.8766 34.3901V37.8052C10.8766 38.0216 10.7566 38.2196 10.5654 38.3176C10.482 38.3604 10.3905 38.3829 10.2989 38.3829ZM1.15337 24.606V26.9107C1.15337 29.2664 2.30063 31.4791 4.22494 32.8305L9.72123 36.6927V34.388C9.72123 32.0323 8.57396 29.8196 6.64965 28.4682L1.15337 24.606Z" stroke="#575656"/>
</g>
<g id="Vector_3">
<path d="M10.2989 30.9034C10.183 30.9034 10.067 30.8687 9.96736 30.7993L3.56384 26.3002C1.33238 24.7325 0 22.1666 0 19.4332V16.0181C0 15.8017 0.120021 15.6037 0.311232 15.5058C0.502442 15.4057 0.732296 15.4221 0.909267 15.5445L7.31279 20.0436C9.54426 21.6113 10.8766 24.1773 10.8766 26.9106V30.3257C10.8766 30.5421 10.7566 30.7401 10.5654 30.8381C10.482 30.8809 10.3905 30.9034 10.2989 30.9034ZM1.15337 17.1266V19.4312C1.15337 21.7869 2.30063 23.9997 4.22494 25.351L9.72123 29.2132V26.9085C9.72123 24.5529 8.57396 22.3401 6.64965 20.9887L1.15337 17.1266Z" fill="#575656"/>
<path d="M10.2989 30.9034C10.183 30.9034 10.067 30.8687 9.96736 30.7993L3.56384 26.3002C1.33238 24.7325 0 22.1666 0 19.4332V16.0181C0 15.8017 0.120021 15.6037 0.311232 15.5058C0.502442 15.4057 0.732296 15.4221 0.909267 15.5445L7.31279 20.0436C9.54426 21.6113 10.8766 24.1773 10.8766 26.9106V30.3257C10.8766 30.5421 10.7566 30.7401 10.5654 30.8381C10.482 30.8809 10.3905 30.9034 10.2989 30.9034ZM1.15337 17.1266V19.4312C1.15337 21.7869 2.30063 23.9997 4.22494 25.351L9.72123 29.2132V26.9085C9.72123 24.5529 8.57396 22.3401 6.64965 20.9887L1.15337 17.1266Z" stroke="#575656"/>
</g>
<g id="Vector_4">
<path d="M10.2989 23.4239C10.183 23.4239 10.067 23.3892 9.96736 23.3198L3.56384 18.8207C1.33238 17.253 0 14.6871 0 11.9537V8.53863C0 8.32225 0.120021 8.12424 0.311232 8.02626C0.502442 7.92624 0.732296 7.94257 0.909267 8.06505L7.31279 12.5641C9.54426 14.1318 10.8766 16.6978 10.8766 19.4311V22.8462C10.8766 23.0626 10.7566 23.2606 10.5654 23.3586C10.482 23.4014 10.3905 23.4239 10.2989 23.4239ZM1.15337 9.64707V11.9517C1.15337 14.3074 2.30063 16.5202 4.22494 17.8715L9.72123 21.7337V19.429C9.72123 17.0734 8.57396 14.8606 6.64965 13.5092L1.15337 9.64707Z" fill="#575656"/>
<path d="M10.2989 23.4239C10.183 23.4239 10.067 23.3892 9.96736 23.3198L3.56384 18.8207C1.33238 17.253 0 14.6871 0 11.9537V8.53863C0 8.32225 0.120021 8.12424 0.311232 8.02626C0.502442 7.92624 0.732296 7.94257 0.909267 8.06505L7.31279 12.5641C9.54426 14.1318 10.8766 16.6978 10.8766 19.4311V22.8462C10.8766 23.0626 10.7566 23.2606 10.5654 23.3586C10.482 23.4014 10.3905 23.4239 10.2989 23.4239ZM1.15337 9.64707V11.9517C1.15337 14.3074 2.30063 16.5202 4.22494 17.8715L9.72123 21.7337V19.429C9.72123 17.0734 8.57396 14.8606 6.64965 13.5092L1.15337 9.64707Z" stroke="#575656"/>
</g>
<g id="Vector_5">
<path d="M10.2984 23.4236C10.2069 23.4236 10.1153 23.4011 10.0319 23.3583C9.84072 23.2582 9.7207 23.0602 9.7207 22.8459V19.4308C9.7207 16.6974 11.0531 14.1295 13.2845 12.5638L19.6881 8.06473C19.865 7.94021 20.0949 7.92592 20.2861 8.02595C20.4773 8.12597 20.5973 8.32398 20.5973 8.53831V11.9534C20.5973 14.6868 19.265 17.2547 17.0335 18.8204L10.63 23.3195C10.5303 23.3889 10.4164 23.4236 10.2984 23.4236ZM19.444 9.64675L13.9477 13.5089C12.0234 14.8603 10.8761 17.073 10.8761 19.4287V21.7334L16.3724 17.8712C18.2967 16.5199 19.444 14.3071 19.444 11.9514V9.64675Z" fill="#575656"/>
<path d="M10.2984 23.4236C10.2069 23.4236 10.1153 23.4011 10.0319 23.3583C9.84072 23.2582 9.7207 23.0602 9.7207 22.8459V19.4308C9.7207 16.6974 11.0531 14.1295 13.2845 12.5638L19.6881 8.06473C19.865 7.94021 20.0949 7.92592 20.2861 8.02595C20.4773 8.12597 20.5973 8.32398 20.5973 8.53831V11.9534C20.5973 14.6868 19.265 17.2547 17.0335 18.8204L10.63 23.3195C10.5303 23.3889 10.4164 23.4236 10.2984 23.4236ZM19.444 9.64675L13.9477 13.5089C12.0234 14.8603 10.8761 17.073 10.8761 19.4287V21.7334L16.3724 17.8712C18.2967 16.5199 19.444 14.3071 19.444 11.9514V9.64675Z" stroke="#575656"/>
</g>
<g id="Vector_6">
<path d="M10.2984 38.3826C10.2069 38.3826 10.1153 38.3601 10.0319 38.3172C9.84072 38.2172 9.7207 38.0192 9.7207 37.8049V34.3898C9.7207 31.6564 11.0531 29.0885 13.2845 27.5228L19.6881 23.0237C19.865 22.8992 20.0949 22.8849 20.2861 22.9849C20.4773 23.085 20.5973 23.283 20.5973 23.4973V26.9124C20.5973 29.6457 19.265 32.2137 17.0335 33.7794L10.63 38.2785C10.5303 38.3479 10.4164 38.3826 10.2984 38.3826ZM19.444 24.6057L13.9477 28.4679C12.0234 29.8192 10.8761 32.032 10.8761 34.3877V36.6924L16.3724 32.8302C18.2967 31.4788 19.444 29.2661 19.444 26.9104V24.6057Z" fill="#575656"/>
<path d="M10.2984 38.3826C10.2069 38.3826 10.1153 38.3601 10.0319 38.3172C9.84072 38.2172 9.7207 38.0192 9.7207 37.8049V34.3898C9.7207 31.6564 11.0531 29.0885 13.2845 27.5228L19.6881 23.0237C19.865 22.8992 20.0949 22.8849 20.2861 22.9849C20.4773 23.085 20.5973 23.283 20.5973 23.4973V26.9124C20.5973 29.6457 19.265 32.2137 17.0335 33.7794L10.63 38.2785C10.5303 38.3479 10.4164 38.3826 10.2984 38.3826ZM19.444 24.6057L13.9477 28.4679C12.0234 29.8192 10.8761 32.032 10.8761 34.3877V36.6924L16.3724 32.8302C18.2967 31.4788 19.444 29.2661 19.444 26.9104V24.6057Z" stroke="#575656"/>
</g>
<g id="Vector_7">
<path d="M10.2984 30.9031C10.2069 30.9031 10.1153 30.8806 10.0319 30.8377C9.84072 30.7377 9.7207 30.5397 9.7207 30.3254V26.9103C9.7207 24.1769 11.0531 21.609 13.2845 20.0433L19.6881 15.5442C19.865 15.4197 20.0949 15.4054 20.2861 15.5054C20.4773 15.6055 20.5973 15.8035 20.5973 16.0178V19.4329C20.5973 22.1663 19.265 24.7342 17.0335 26.2999L10.63 30.799C10.5303 30.8684 10.4164 30.9031 10.2984 30.9031ZM19.444 17.1262L13.9477 20.9884C12.0234 22.3398 10.8761 24.5525 10.8761 26.9082V29.2129L16.3724 25.3507C18.2967 23.9994 19.444 21.7866 19.444 19.4309V17.1262Z" fill="#575656"/>
<path d="M10.2984 30.9031C10.2069 30.9031 10.1153 30.8806 10.0319 30.8377C9.84072 30.7377 9.7207 30.5397 9.7207 30.3254V26.9103C9.7207 24.1769 11.0531 21.609 13.2845 20.0433L19.6881 15.5442C19.865 15.4197 20.0949 15.4054 20.2861 15.5054C20.4773 15.6055 20.5973 15.8035 20.5973 16.0178V19.4329C20.5973 22.1663 19.265 24.7342 17.0335 26.2999L10.63 30.799C10.5303 30.8684 10.4164 30.9031 10.2984 30.9031ZM19.444 17.1262L13.9477 20.9884C12.0234 22.3398 10.8761 24.5525 10.8761 26.9082V29.2129L16.3724 25.3507C18.2967 23.9994 19.444 21.7866 19.444 19.4309V17.1262Z" stroke="#575656"/>
</g>
<g id="Vector_8">
<path d="M10.2983 46.0501C9.97896 46.0501 9.72266 45.7908 9.72266 45.4724V37.8052C9.72266 37.4847 9.98099 37.2275 10.2983 37.2275C10.6156 37.2275 10.874 37.4868 10.874 37.8052V45.4724C10.874 45.7929 10.6156 46.0501 10.2983 46.0501Z" fill="#575656"/>
<path d="M10.2983 46.0501C9.97896 46.0501 9.72266 45.7908 9.72266 45.4724V37.8052C9.72266 37.4847 9.98099 37.2275 10.2983 37.2275C10.6156 37.2275 10.874 37.4868 10.874 37.8052V45.4724C10.874 45.7929 10.6156 46.0501 10.2983 46.0501Z" stroke="#575656"/>
</g>
<g id="Vector_9">
<path d="M10.2983 23.4241C9.97896 23.4241 9.72266 23.1648 9.72266 22.8464V0.577689C9.72266 0.257203 9.98099 0 10.2983 0C10.6156 0 10.874 0.259244 10.874 0.577689V22.8464C10.874 23.1669 10.6156 23.4241 10.2983 23.4241Z" fill="#575656"/>
<path d="M10.2983 23.4241C9.97896 23.4241 9.72266 23.1648 9.72266 22.8464V0.577689C9.72266 0.257203 9.98099 0 10.2983 0C10.6156 0 10.874 0.259244 10.874 0.577689V22.8464C10.874 23.1669 10.6156 23.4241 10.2983 23.4241Z" stroke="#575656"/>
</g>
<g id="Vector_10">
<path d="M20.021 9.11494C19.7016 9.11494 19.4453 8.8557 19.4453 8.53726V3.48296C19.4453 3.16248 19.7036 2.90527 20.021 2.90527C20.3383 2.90527 20.5966 3.16452 20.5966 3.48296V8.53726C20.5966 8.85774 20.3383 9.11494 20.021 9.11494Z" fill="#575656"/>
<path d="M20.021 9.11494C19.7016 9.11494 19.4453 8.8557 19.4453 8.53726V3.48296C19.4453 3.16248 19.7036 2.90527 20.021 2.90527C20.3383 2.90527 20.5966 3.16452 20.5966 3.48296V8.53726C20.5966 8.85774 20.3383 9.11494 20.021 9.11494Z" stroke="#575656"/>
</g>
</g>
</g>
</svg>
