<svg width="35" height="47" viewBox="0 0 35 47" fill="none" xmlns="http://www.w3.org/2000/svg">
<g id="Group">
<g id="Vector">
<path d="M31.8216 7.12378C31.6573 7.12378 31.4951 7.05784 31.3756 6.92809C24.8463 -0.17821 14.745 1.35961 14.6447 1.37662C14.3161 1.4298 14.0046 1.20646 13.9513 0.878907C13.8979 0.551349 14.1199 0.240807 14.4506 0.187633C14.8901 0.115315 25.2901 -1.48206 32.2697 6.11558C32.4958 6.36018 32.4788 6.74304 32.2312 6.96638C32.116 7.07273 31.9688 7.12378 31.8237 7.12378H31.8216Z" fill="#575656"/>
<path d="M31.8216 7.12378C31.6573 7.12378 31.4951 7.05784 31.3756 6.92809C24.8463 -0.17821 14.745 1.35961 14.6447 1.37662C14.3161 1.4298 14.0046 1.20646 13.9513 0.878907C13.8979 0.551349 14.1199 0.240807 14.4506 0.187633C14.8901 0.115315 25.2901 -1.48206 32.2697 6.11558C32.4958 6.36018 32.4788 6.74304 32.2312 6.96638C32.116 7.07273 31.9688 7.12378 31.8237 7.12378H31.8216Z" stroke="#575656"/>
</g>
<g id="Vector_2">
<path d="M34.0702 17.5293C33.8269 17.5293 33.5965 17.3826 33.5047 17.1422C30.7991 10.0933 25.8445 6.1201 18.7817 5.33311C13.5229 4.74553 8.9724 6.23046 8.80645 6.28461C8.8042 6.28534 8.80276 6.28581 8.80213 6.28601C8.48633 6.39236 8.14279 6.22433 8.03397 5.90953C7.92728 5.59473 8.09585 5.25229 8.41165 5.14381C8.60795 5.07788 13.283 3.51453 18.8735 4.12923C24.0799 4.69927 31.0381 7.34525 34.6335 16.7104C34.753 17.021 34.5972 17.3698 34.2857 17.4889C34.2153 17.5166 34.1406 17.5293 34.0702 17.5293Z" fill="#575656"/>
<path d="M34.0702 17.5293C33.8269 17.5293 33.5965 17.3826 33.5047 17.1422C30.7991 10.0933 25.8445 6.1201 18.7817 5.33311C13.5229 4.74553 8.9724 6.23046 8.80645 6.28461C8.8042 6.28534 8.80276 6.28581 8.80213 6.28601C8.48633 6.39236 8.14279 6.22433 8.03397 5.90953C7.92728 5.59473 8.09585 5.25229 8.41165 5.14381C8.60795 5.07788 13.283 3.51453 18.8735 4.12923C24.0799 4.69927 31.0381 7.34525 34.6335 16.7104C34.753 17.021 34.5972 17.3698 34.2857 17.4889C34.2153 17.5166 34.1406 17.5293 34.0702 17.5293Z" stroke="#575656"/>
</g>
<g id="Vector_3">
<path d="M27.9528 36.8101C27.8759 36.8101 27.797 36.7952 27.7202 36.7633C27.4108 36.6357 27.2657 36.2826 27.3937 35.9742C27.4108 35.9338 29.0794 31.8989 29.4763 26.9685C30.0033 20.4599 28.1853 15.5507 24.0714 12.3794C19.9618 9.20803 15.3465 8.44018 10.3535 10.0971C6.57883 11.3499 3.99059 13.5896 3.96498 13.613C3.7132 13.8321 3.33126 13.8087 3.11148 13.5577C2.8917 13.3068 2.91517 12.9282 3.16482 12.7069C3.27578 12.6091 5.93444 10.3013 9.92885 8.96768C13.6501 7.72339 19.2513 7.14272 24.8076 11.4286C29.2074 14.8233 31.2366 20.2429 30.6754 27.1004C30.2579 32.2076 28.5812 36.2589 28.5058 36.4413L28.5054 36.4421C28.4073 36.674 28.1832 36.8122 27.9464 36.8122L27.9528 36.8101Z" fill="#575656"/>
<path d="M27.9528 36.8101C27.8759 36.8101 27.797 36.7952 27.7202 36.7633C27.4108 36.6357 27.2657 36.2826 27.3937 35.9742C27.4108 35.9338 29.0794 31.8989 29.4763 26.9685C30.0033 20.4599 28.1853 15.5507 24.0714 12.3794C19.9618 9.20803 15.3465 8.44018 10.3535 10.0971C6.57883 11.3499 3.99059 13.5896 3.96498 13.613C3.7132 13.8321 3.33126 13.8087 3.11148 13.5577C2.8917 13.3068 2.91517 12.9282 3.16482 12.7069C3.27578 12.6091 5.93444 10.3013 9.92885 8.96768C13.6501 7.72339 19.2513 7.14272 24.8076 11.4286C29.2074 14.8233 31.2366 20.2429 30.6754 27.1004C30.2579 32.2076 28.5812 36.2589 28.5058 36.4413L28.5054 36.4421C28.4073 36.674 28.1832 36.8122 27.9464 36.8122L27.9528 36.8101Z" stroke="#575656"/>
</g>
<g id="Vector_4">
<path d="M16.8711 42.2808C16.63 42.2808 16.4017 42.1362 16.3078 41.898C16.1862 41.5874 16.3377 41.2386 16.6492 41.1152L16.6502 41.1148C16.7211 41.0849 19.9879 39.7066 23.8635 34.328C26.4859 30.6908 26.5179 23.6909 23.9339 18.7222C22.963 16.8547 20.7567 13.7301 16.8754 13.7578C7.99894 13.8322 1.61258 22.8592 1.54856 22.9507C1.35866 23.225 0.983114 23.2931 0.707858 23.1017C0.432603 22.9124 0.364318 22.5359 0.556356 22.2636C0.624637 22.1658 2.26337 19.8282 5.08208 17.4502C8.8439 14.2789 12.9194 12.5858 16.8669 12.5518H16.9373C20.2617 12.5518 23.1252 14.5448 25.0093 18.167C27.7789 23.4973 27.7064 31.0609 24.8471 35.0299C20.714 40.7664 17.2403 42.1787 17.0952 42.2362C17.0226 42.2638 16.9479 42.2787 16.8733 42.2787L16.8711 42.2808Z" fill="#575656"/>
<path d="M16.8711 42.2808C16.63 42.2808 16.4017 42.1362 16.3078 41.898C16.1862 41.5874 16.3377 41.2386 16.6492 41.1152L16.6502 41.1148C16.7211 41.0849 19.9879 39.7066 23.8635 34.328C26.4859 30.6908 26.5179 23.6909 23.9339 18.7222C22.963 16.8547 20.7567 13.7301 16.8754 13.7578C7.99894 13.8322 1.61258 22.8592 1.54856 22.9507C1.35866 23.225 0.983114 23.2931 0.707858 23.1017C0.432603 22.9124 0.364318 22.5359 0.556356 22.2636C0.624637 22.1658 2.26337 19.8282 5.08208 17.4502C8.8439 14.2789 12.9194 12.5858 16.8669 12.5518H16.9373C20.2617 12.5518 23.1252 14.5448 25.0093 18.167C27.7789 23.4973 27.7064 31.0609 24.8471 35.0299C20.714 40.7664 17.2403 42.1787 17.0952 42.2362C17.0226 42.2638 16.9479 42.2787 16.8733 42.2787L16.8711 42.2808Z" stroke="#575656"/>
</g>
<g id="Vector_5">
<path d="M9.50914 41.7424C9.28083 41.7424 9.06318 41.6147 8.96076 41.3956C8.81993 41.0936 8.95009 40.7342 9.25309 40.5938C16.6807 37.131 20.9867 32.7494 21.7015 27.9254C22.2627 24.1436 20.4554 20.9297 19.1836 19.7938C17.9311 18.675 16.0043 18.1263 14.1586 18.3645C12.3535 18.5963 10.8193 19.5407 9.8356 21.0233C5.34616 27.7914 0.73723 27.4085 0.543057 27.3894C0.21019 27.3553 -0.0309191 27.0597 0.0032211 26.7279C0.0373613 26.3982 0.327546 26.1578 0.662547 26.1876C0.728694 26.1919 4.78712 26.4492 8.82847 20.3575C10.0084 18.5772 11.8477 17.4435 14.0071 17.167C16.1942 16.8862 18.488 17.5499 19.9945 18.8963C21.5116 20.2512 23.5365 23.8224 22.9007 28.1019C21.9191 34.7275 15.217 39.1453 9.76732 41.6849C9.6841 41.7232 9.59663 41.7424 9.51128 41.7424H9.50914Z" fill="#575656"/>
<path d="M9.50914 41.7424C9.28083 41.7424 9.06318 41.6147 8.96076 41.3956C8.81993 41.0936 8.95009 40.7342 9.25309 40.5938C16.6807 37.131 20.9867 32.7494 21.7015 27.9254C22.2627 24.1436 20.4554 20.9297 19.1836 19.7938C17.9311 18.675 16.0043 18.1263 14.1586 18.3645C12.3535 18.5963 10.8193 19.5407 9.8356 21.0233C5.34616 27.7914 0.73723 27.4085 0.543057 27.3894C0.21019 27.3553 -0.0309191 27.0597 0.0032211 26.7279C0.0373613 26.3982 0.327546 26.1578 0.662547 26.1876C0.728694 26.1919 4.78712 26.4492 8.82847 20.3575C10.0084 18.5772 11.8477 17.4435 14.0071 17.167C16.1942 16.8862 18.488 17.5499 19.9945 18.8963C21.5116 20.2512 23.5365 23.8224 22.9007 28.1019C21.9191 34.7275 15.217 39.1453 9.76732 41.6849C9.6841 41.7232 9.59663 41.7424 9.51128 41.7424H9.50914Z" stroke="#575656"/>
</g>
<g id="Vector_6">
<path d="M4.73971 39.5015C4.47513 39.5015 4.23401 39.3271 4.1572 39.0633C4.06545 38.7421 4.25322 38.4103 4.57542 38.3189C4.57584 38.3187 4.57704 38.3184 4.57901 38.3178C4.67866 38.2889 6.7514 37.6886 9.20782 36.4726C11.4909 35.3432 14.5849 33.4353 16.3666 30.7616C17.6149 28.8856 18.0544 27.15 17.6725 25.6015C17.3097 24.1296 16.2791 23.2299 15.7862 22.9598C14.57 22.294 13.2193 22.0601 10.0827 26.4247C7.01005 30.7021 1.38758 31.6528 1.14859 31.6911C0.822128 31.7443 0.508465 31.521 0.455121 31.1934C0.401777 30.8658 0.625815 30.5553 0.954415 30.5021L0.954665 30.5021C1.02928 30.4893 6.33064 29.5785 9.09901 25.7228C11.5806 22.2685 13.6631 20.4244 16.3666 21.9027C17.0708 22.2877 18.383 23.4384 18.846 25.3144C19.3133 27.2032 18.8183 29.2621 17.3737 31.4295C15.8225 33.7607 13.247 35.8239 9.7242 37.5638C7.121 38.8485 4.99363 39.4547 4.90402 39.4802C4.84854 39.4951 4.79306 39.5036 4.73971 39.5036V39.5015Z" fill="#575656"/>
<path d="M4.73971 39.5015C4.47513 39.5015 4.23401 39.3271 4.1572 39.0633C4.06545 38.7421 4.25322 38.4103 4.57542 38.3189C4.57584 38.3187 4.57704 38.3184 4.57901 38.3178C4.67866 38.2889 6.7514 37.6886 9.20782 36.4726C11.4909 35.3432 14.5849 33.4353 16.3666 30.7616C17.6149 28.8856 18.0544 27.15 17.6725 25.6015C17.3097 24.1296 16.2791 23.2299 15.7862 22.9598C14.57 22.294 13.2193 22.0601 10.0827 26.4247C7.01005 30.7021 1.38758 31.6528 1.14859 31.6911C0.822128 31.7443 0.508465 31.521 0.455121 31.1934C0.401777 30.8658 0.625815 30.5553 0.954415 30.5021L0.954665 30.5021C1.02928 30.4893 6.33064 29.5785 9.09901 25.7228C11.5806 22.2685 13.6631 20.4244 16.3666 21.9027C17.0708 22.2877 18.383 23.4384 18.846 25.3144C19.3133 27.2032 18.8183 29.2621 17.3737 31.4295C15.8225 33.7607 13.247 35.8239 9.7242 37.5638C7.121 38.8485 4.99363 39.4547 4.90402 39.4802C4.84854 39.4951 4.79306 39.5036 4.73971 39.5036V39.5015Z" stroke="#575656"/>
</g>
<g id="Vector_7">
<path d="M2.58111 35.3747C2.27385 35.3747 2.00926 35.1408 1.97939 34.8302C1.94738 34.4984 2.19064 34.2049 2.52351 34.173C2.61526 34.1645 9.99809 33.3392 14.0138 25.7905C14.1696 25.4969 14.5366 25.3842 14.8311 25.5395C15.1255 25.6948 15.2386 26.0606 15.0829 26.3541C10.747 34.5027 2.96947 35.3407 2.64087 35.3705C2.63126 35.3705 2.62166 35.371 2.61206 35.3715C2.60246 35.3721 2.59285 35.3726 2.58325 35.3726L2.58111 35.3747Z" fill="#575656"/>
<path d="M2.58111 35.3747C2.27385 35.3747 2.00926 35.1408 1.97939 34.8302C1.94738 34.4984 2.19064 34.2049 2.52351 34.173C2.61526 34.1645 9.99809 33.3392 14.0138 25.7905C14.1696 25.4969 14.5366 25.3842 14.8311 25.5395C15.1255 25.6948 15.2386 26.0606 15.0829 26.3541C10.747 34.5027 2.96947 35.3407 2.64087 35.3705C2.63126 35.3705 2.62166 35.371 2.61206 35.3715C2.60246 35.3721 2.59285 35.3726 2.58325 35.3726L2.58111 35.3747Z" stroke="#575656"/>
</g>
<g id="Vector_8">
<path d="M16.8714 46.0475C16.6325 46.0475 16.4063 45.905 16.3103 45.671C16.1844 45.3626 16.3337 45.0116 16.6453 44.8861C20.134 43.4802 22.2912 41.8509 23.4861 40.73C24.7771 39.5197 25.255 38.6285 25.2593 38.62C25.415 38.3265 25.7799 38.2116 26.0744 38.3648C26.371 38.5179 26.4862 38.8795 26.3347 39.1751C26.2515 39.3347 24.2265 43.1356 17.0998 46.0049C17.0251 46.0347 16.9483 46.0496 16.8736 46.0496L16.8714 46.0475Z" fill="#575656"/>
<path d="M16.8714 46.0475C16.6325 46.0475 16.4063 45.905 16.3103 45.671C16.1844 45.3626 16.3337 45.0116 16.6453 44.8861C20.134 43.4802 22.2912 41.8509 23.4861 40.73C24.7771 39.5197 25.255 38.6285 25.2593 38.62C25.415 38.3265 25.7799 38.2116 26.0744 38.3648C26.371 38.5179 26.4862 38.8795 26.3347 39.1751C26.2515 39.3347 24.2265 43.1356 17.0998 46.0049C17.0251 46.0347 16.9483 46.0496 16.8736 46.0496L16.8714 46.0475Z" stroke="#575656"/>
</g>
</g>
</svg>
