<svg width="20" height="47" viewBox="0 0 20 47" fill="none" xmlns="http://www.w3.org/2000/svg">
<g id="Group">
<g id="Vector">
<path d="M18.2241 46.0495C17.9007 46.0495 17.6411 45.7869 17.6411 45.4644V39.9281C17.6411 37.1062 13.7846 32.3761 9.22151 29.5997L3.77465 26.2857C1.27164 24.7621 -0.067428 22.7609 0.00261501 20.6481C0.0747181 18.5353 1.54562 16.6292 4.14545 15.2792L8.91663 12.8025C13.9103 10.2122 17.639 6.77211 17.639 5.42627V2.21983C17.639 1.89525 17.9007 1.63477 18.222 1.63477C18.5434 1.63477 18.8051 1.89732 18.8051 2.21983V5.42627C18.8051 7.73962 13.9844 11.4898 9.45018 13.8424L4.67901 16.3191C2.47059 17.4644 1.22219 19.017 1.16657 20.6874C1.11095 22.3578 2.25017 23.991 4.37618 25.2831L9.82307 28.597C14.7755 31.6112 18.8051 36.6948 18.8051 39.9281V45.4644C18.8051 45.789 18.5434 46.0495 18.222 46.0495H18.2241Z" fill="#575656"/>
<path d="M18.2241 46.0495C17.9007 46.0495 17.6411 45.7869 17.6411 45.4644V39.9281C17.6411 37.1062 13.7846 32.3761 9.22151 29.5997L3.77465 26.2857C1.27164 24.7621 -0.067428 22.7609 0.00261501 20.6481C0.0747181 18.5353 1.54562 16.6292 4.14545 15.2792L8.91663 12.8025C13.9103 10.2122 17.639 6.77211 17.639 5.42627V2.21983C17.639 1.89525 17.9007 1.63477 18.222 1.63477C18.5434 1.63477 18.8051 1.89732 18.8051 2.21983V5.42627C18.8051 7.73962 13.9844 11.4898 9.45018 13.8424L4.67901 16.3191C2.47059 17.4644 1.22219 19.017 1.16657 20.6874C1.11095 22.3578 2.25017 23.991 4.37618 25.2831L9.82307 28.597C14.7755 31.6112 18.8051 36.6948 18.8051 39.9281V45.4644C18.8051 45.789 18.5434 46.0495 18.222 46.0495H18.2241Z" stroke="#575656"/>
</g>
<g id="Vector_2">
<path d="M0.874012 44.7413C0.550578 44.7413 0.291016 44.4788 0.291016 44.1563V39.2753C0.291016 36.3542 4.23608 31.6634 9.27506 28.5996L14.7219 25.2856C16.8479 23.9915 17.9872 22.3603 17.9316 20.6899C17.8759 19.0195 16.6275 17.469 14.4191 16.3216L9.64793 13.845C5.04981 11.4593 0.293078 7.35146 0.293078 4.61016V0.585054C0.293078 0.260482 0.5547 0 0.876074 0C1.19745 0 1.45907 0.262549 1.45907 0.585054V4.61016C1.45907 6.77053 6.05721 10.6633 10.1815 12.8051L14.9527 15.2818C17.5525 16.6317 19.0234 18.5378 19.0955 20.6506C19.1676 22.7635 17.8286 24.7667 15.3235 26.2883L9.87662 29.6022C5.31146 32.3787 1.45497 36.809 1.45497 39.2774V44.1584C1.45497 44.4829 1.19332 44.7434 0.87195 44.7434L0.874012 44.7413Z" fill="#575656"/>
<path d="M0.874012 44.7413C0.550578 44.7413 0.291016 44.4788 0.291016 44.1563V39.2753C0.291016 36.3542 4.23608 31.6634 9.27506 28.5996L14.7219 25.2856C16.8479 23.9915 17.9872 22.3603 17.9316 20.6899C17.8759 19.0195 16.6275 17.469 14.4191 16.3216L9.64793 13.845C5.04981 11.4593 0.293078 7.35146 0.293078 4.61016V0.585054C0.293078 0.260482 0.5547 0 0.876074 0C1.19745 0 1.45907 0.262549 1.45907 0.585054V4.61016C1.45907 6.77053 6.05721 10.6633 10.1815 12.8051L14.9527 15.2818C17.5525 16.6317 19.0234 18.5378 19.0955 20.6506C19.1676 22.7635 17.8286 24.7667 15.3235 26.2883L9.87662 29.6022C5.31146 32.3787 1.45497 36.809 1.45497 39.2774V44.1584C1.45497 44.4829 1.19332 44.7434 0.87195 44.7434L0.874012 44.7413Z" stroke="#575656"/>
</g>
<g id="Vector_3">
<path d="M12.4773 3.73848H2.2119C1.88847 3.73848 1.62891 3.47593 1.62891 3.15342C1.62891 2.83092 1.89053 2.56836 2.2119 2.56836H12.4773C12.8008 2.56836 13.0603 2.83092 13.0603 3.15342C13.0603 3.47593 12.7987 3.73848 12.4773 3.73848Z" fill="#575656"/>
<path d="M12.4773 3.73848H2.2119C1.88847 3.73848 1.62891 3.47593 1.62891 3.15342C1.62891 2.83092 1.89053 2.56836 2.2119 2.56836H12.4773C12.8008 2.56836 13.0603 2.83092 13.0603 3.15342C13.0603 3.47593 12.7987 3.73848 12.4773 3.73848Z" stroke="#575656"/>
</g>
<g id="Vector_4">
<path d="M17.0633 7.99629H6.79784C6.47441 7.99629 6.21484 7.73373 6.21484 7.41123C6.21484 7.08872 6.47647 6.82617 6.79784 6.82617H17.0633C17.3867 6.82617 17.6463 7.08872 17.6463 7.41123C17.6463 7.73373 17.3846 7.99629 17.0633 7.99629Z" fill="#575656"/>
<path d="M17.0633 7.99629H6.79784C6.47441 7.99629 6.21484 7.73373 6.21484 7.41123C6.21484 7.08872 6.47647 6.82617 6.79784 6.82617H17.0633C17.3867 6.82617 17.6463 7.08872 17.6463 7.41123C17.6463 7.73373 17.3846 7.99629 17.0633 7.99629Z" stroke="#575656"/>
</g>
<g id="Vector_5">
<path d="M16.5574 37.2121H6.29201C5.96857 37.2121 5.70898 36.9496 5.70898 36.6271C5.70898 36.3045 5.97063 36.042 6.29201 36.042H16.5574C16.8809 36.042 17.1404 36.3045 17.1404 36.6271C17.1404 36.9496 16.8788 37.2121 16.5574 37.2121Z" fill="#575656"/>
<path d="M16.5574 37.2121H6.29201C5.96857 37.2121 5.70898 36.9496 5.70898 36.6271C5.70898 36.3045 5.97063 36.042 6.29201 36.042H16.5574C16.8809 36.042 17.1404 36.3045 17.1404 36.6271C17.1404 36.9496 16.8788 37.2121 16.5574 37.2121Z" stroke="#575656"/>
</g>
<g id="Vector_6">
<path d="M12.4773 41.4689H2.2119C1.88847 41.4689 1.62891 41.2064 1.62891 40.8839C1.62891 40.5614 1.89053 40.2988 2.2119 40.2988H12.4773C12.8008 40.2988 13.0603 40.5614 13.0603 40.8839C13.0603 41.2064 12.7987 41.4689 12.4773 41.4689Z" fill="#575656"/>
<path d="M12.4773 41.4689H2.2119C1.88847 41.4689 1.62891 41.2064 1.62891 40.8839C1.62891 40.5614 1.89053 40.2988 2.2119 40.2988H12.4773C12.8008 40.2988 13.0603 40.5614 13.0603 40.8839C13.0603 41.2064 12.7987 41.4689 12.4773 41.4689Z" stroke="#575656"/>
</g>
<g id="Vector_7">
<path d="M17.4304 19.3713H7.16701C6.84357 19.3713 6.58398 19.1087 6.58398 18.7862C6.58398 18.4637 6.84563 18.2012 7.16701 18.2012H17.4304C17.7538 18.2012 18.0134 18.4637 18.0134 18.7862C18.0134 19.1087 17.7517 19.3713 17.4304 19.3713Z" fill="#575656"/>
<path d="M17.4304 19.3713H7.16701C6.84357 19.3713 6.58398 19.1087 6.58398 18.7862C6.58398 18.4637 6.84563 18.2012 7.16701 18.2012H17.4304C17.7538 18.2012 18.0134 18.4637 18.0134 18.7862C18.0134 19.1087 17.7517 19.3713 17.4304 19.3713Z" stroke="#575656"/>
</g>
<g id="Vector_8">
<path d="M11.9304 23.6272H1.66698C1.34355 23.6272 1.08398 23.3646 1.08398 23.0421C1.08398 22.7196 1.34561 22.457 1.66698 22.457H11.9304C12.2538 22.457 12.5134 22.7196 12.5134 23.0421C12.5134 23.3646 12.2517 23.6272 11.9304 23.6272Z" fill="#575656"/>
<path d="M11.9304 23.6272H1.66698C1.34355 23.6272 1.08398 23.3646 1.08398 23.0421C1.08398 22.7196 1.34561 22.457 1.66698 22.457H11.9304C12.2538 22.457 12.5134 22.7196 12.5134 23.0421C12.5134 23.3646 12.2517 23.6272 11.9304 23.6272Z" stroke="#575656"/>
</g>
</g>
</svg>
