<svg width="46" height="42" viewBox="0 0 46 42" fill="none" xmlns="http://www.w3.org/2000/svg">
<g id="Group 52">
<g id="Vector">
<path d="M22.6498 3.57183C24.8188 1.76161 27.2799 0.631945 30.0331 0.182837C34.31 -0.514209 38.5744 0.763859 41.129 4.32554C43.0397 6.9884 43.9083 9.99544 43.7348 13.3467C43.6721 14.5603 43.4804 15.7406 43.1599 16.8877C42.9553 17.6189 42.0817 17.9013 41.4771 17.4309C41.0286 17.0801 41.007 16.5926 41.1398 16.0836C41.9615 12.9428 41.7551 9.74451 40.1962 6.88257C39.6463 5.87253 38.9879 4.93714 38.1187 4.18793C36.1578 2.49883 33.4372 1.9331 30.879 2.24969C27.9882 2.60766 25.4879 3.80118 23.3782 5.83026C23.0565 6.13966 22.6938 6.23379 22.2901 6.11267C22.0066 6.02772 21.7925 5.8159 21.5811 5.60672C21.5083 5.53464 21.4358 5.46289 21.3608 5.39674C18.7281 3.07086 15.1769 1.85755 11.7234 2.24879C9.37682 2.51412 7.23477 3.60691 5.85159 5.54245C4.63166 7.24893 3.90479 9.08254 3.67097 11.0433C3.46824 12.7432 3.64137 14.5024 4.07821 16.1618C4.14698 16.4239 4.15685 16.6529 4.10781 16.849C3.89342 17.7088 2.75154 17.958 2.21961 17.2402C2.11077 17.0933 2.02377 16.8793 1.95858 16.598C1.55194 14.8514 1.3851 13.2528 1.45805 11.8024C1.59559 9.06335 2.47705 6.55668 4.10243 4.28237C5.51073 2.31085 7.62318 0.96173 9.97961 0.378909C14.3355 -0.698588 19.1013 0.68471 22.5503 3.57183C22.5831 3.59941 22.6163 3.59941 22.6498 3.57183Z" fill="#575656"/>
<path d="M22.6498 3.57183C24.8188 1.76161 27.2799 0.631945 30.0331 0.182837C34.31 -0.514209 38.5744 0.763859 41.129 4.32554C43.0397 6.9884 43.9083 9.99544 43.7348 13.3467C43.6721 14.5603 43.4804 15.7406 43.1599 16.8877C42.9553 17.6189 42.0817 17.9013 41.4771 17.4309C41.0286 17.0801 41.007 16.5926 41.1398 16.0836C41.9615 12.9428 41.7551 9.74451 40.1962 6.88257C39.6463 5.87253 38.9879 4.93714 38.1187 4.18793C36.1578 2.49883 33.4372 1.9331 30.879 2.24969C27.9882 2.60766 25.4879 3.80118 23.3782 5.83026C23.0565 6.13966 22.6938 6.23379 22.2901 6.11267C22.0066 6.02772 21.7925 5.8159 21.5811 5.60672C21.5083 5.53464 21.4358 5.46289 21.3608 5.39674C18.7281 3.07086 15.1769 1.85755 11.7234 2.24879C9.37682 2.51412 7.23477 3.60691 5.85159 5.54245C4.63166 7.24893 3.90479 9.08254 3.67097 11.0433C3.46824 12.7432 3.64137 14.5024 4.07821 16.1618C4.14698 16.4239 4.15685 16.6529 4.10781 16.849C3.89342 17.7088 2.75154 17.958 2.21961 17.2402C2.11077 17.0933 2.02377 16.8793 1.95858 16.598C1.55194 14.8514 1.3851 13.2528 1.45805 11.8024C1.59559 9.06335 2.47705 6.55668 4.10243 4.28237C5.51073 2.31085 7.62318 0.96173 9.97961 0.378909C14.3355 -0.698588 19.1013 0.68471 22.5503 3.57183C22.5831 3.59941 22.6163 3.59941 22.6498 3.57183Z" stroke="#575656"/>
</g>
<g id="Vector_2">
<path d="M19.0591 17.3625C19.0441 17.2822 19.0262 17.2816 19.0053 17.3607C18.3941 19.6908 17.7824 22.0449 17.17 24.4229C17.0821 24.7641 16.9861 24.9929 16.8821 25.1092C16.3196 25.7406 15.3921 25.5724 15.045 24.8025C14.3525 23.2633 13.6409 21.6803 12.9101 20.0536C12.9084 20.0497 12.9057 20.0464 12.9022 20.0441C12.8987 20.0418 12.8946 20.0406 12.8904 20.0406C12.8862 20.0406 12.8821 20.0418 12.8786 20.0441C12.8751 20.0464 12.8723 20.0497 12.8707 20.0536C12.6805 20.4811 12.4909 20.9029 12.302 21.319C12.0947 21.7751 11.7072 21.9846 11.2246 21.9846C7.66892 21.9822 4.32667 21.981 1.19792 21.981C0.565826 21.981 0.178619 21.7076 0.0362939 21.1608C-0.150283 20.4421 0.407654 19.8233 1.13333 19.8233H10.5842C10.5929 19.8234 10.6015 19.8208 10.6088 19.816C10.6162 19.8112 10.6219 19.8044 10.6254 19.7963C10.9998 18.9755 11.3888 18.1066 11.7925 17.1898C11.9162 16.9086 12.037 16.7191 12.1548 16.6214C12.5702 16.276 13.268 16.2724 13.6582 16.652C13.7712 16.7617 13.8911 16.9611 14.0179 17.2501C14.5938 18.559 15.1757 19.8551 15.7635 21.1383C15.7779 21.1688 15.7892 21.1676 15.7976 21.1347C16.5756 18.1528 17.3476 15.1823 18.1137 12.2233C18.1962 11.9037 18.2972 11.6764 18.4168 11.5415C18.9694 10.9182 20.1059 11.1683 20.2665 12.0371C20.95 15.7421 21.6443 19.5298 22.3493 23.4003C22.3673 23.4992 22.3861 23.4995 22.4058 23.4012C22.5482 22.6841 22.6845 21.9351 22.8149 21.1545C22.8872 20.7191 22.9787 20.4271 23.0893 20.2784C23.3124 19.9786 23.6057 19.8278 23.9693 19.826C24.724 19.8218 25.4978 19.8212 26.2908 19.8242C26.3022 19.8242 26.3133 19.8205 26.3225 19.8137C26.3317 19.8069 26.3385 19.7974 26.3419 19.7864C26.7467 18.4991 27.1782 17.1065 27.6363 15.6087C27.8264 14.9854 28.3216 14.5968 28.989 14.7659C29.441 14.8801 29.6518 15.2048 29.7819 15.6249L31.9267 22.5476C31.947 22.6136 31.9691 22.6142 31.993 22.5494C32.6443 20.7812 33.291 19.013 33.9333 17.2447C34.0415 16.9461 34.159 16.7362 34.2858 16.6151C34.7127 16.2068 35.4232 16.187 35.8223 16.6583C35.9228 16.777 36.0074 16.9134 36.0762 17.0675C36.4888 17.9981 36.8946 18.9029 37.2934 19.782C37.2985 19.7933 37.3067 19.8029 37.317 19.8097C37.3273 19.8166 37.3394 19.8204 37.3517 19.8206C39.4196 19.829 41.5156 19.8272 43.6398 19.8152C44.1038 19.8122 44.4142 19.8473 44.5708 19.9205C45.6177 20.4061 45.2759 21.9792 44.1349 21.981C41.7249 21.9834 39.219 21.9831 36.6171 21.9801C36.0574 21.9801 35.7407 21.6311 35.5254 21.1131C35.41 20.8343 35.2853 20.5572 35.1514 20.282C35.14 20.2598 35.1299 20.2604 35.1209 20.2838C34.4194 22.1714 33.7201 24.0824 33.0228 26.0167C32.8835 26.4052 32.7495 26.6589 32.6209 26.7776C32.0002 27.3514 31.079 27.0816 30.8287 26.2766C30.1344 24.0383 29.4357 21.7849 28.7324 19.5166C28.7157 19.4633 28.6992 19.4633 28.6831 19.5166C28.5109 20.0743 28.3383 20.6259 28.1655 21.1715C27.9395 21.883 27.4309 22.0035 26.7366 21.9891C26.0961 21.9771 25.479 21.9762 24.8852 21.9864C24.8784 21.9863 24.8718 21.9887 24.8665 21.9932C24.8613 21.9976 24.8577 22.0038 24.8564 22.0107C24.4008 24.4679 23.9448 26.9635 23.4885 29.4974C23.3997 29.9894 23.2463 30.3483 22.7772 30.5344C22.1143 30.798 21.4362 30.3788 21.3106 29.689C20.5553 25.5607 19.8048 21.4519 19.0591 17.3625Z" fill="#575656"/>
<path d="M19.0591 17.3625C19.0441 17.2822 19.0262 17.2816 19.0053 17.3607C18.3941 19.6908 17.7824 22.0449 17.17 24.4229C17.0821 24.7641 16.9861 24.9929 16.8821 25.1092C16.3196 25.7406 15.3921 25.5724 15.045 24.8025C14.3525 23.2633 13.6409 21.6803 12.9101 20.0536C12.9084 20.0497 12.9057 20.0464 12.9022 20.0441C12.8987 20.0418 12.8946 20.0406 12.8904 20.0406C12.8862 20.0406 12.8821 20.0418 12.8786 20.0441C12.8751 20.0464 12.8723 20.0497 12.8707 20.0536C12.6805 20.4811 12.4909 20.9029 12.302 21.319C12.0947 21.7751 11.7072 21.9846 11.2246 21.9846C7.66892 21.9822 4.32667 21.981 1.19792 21.981C0.565826 21.981 0.178619 21.7076 0.0362939 21.1608C-0.150283 20.4421 0.407654 19.8233 1.13333 19.8233H10.5842C10.5929 19.8234 10.6015 19.8208 10.6088 19.816C10.6162 19.8112 10.6219 19.8044 10.6254 19.7963C10.9998 18.9755 11.3888 18.1066 11.7925 17.1898C11.9162 16.9086 12.037 16.7191 12.1548 16.6214C12.5702 16.276 13.268 16.2724 13.6582 16.652C13.7712 16.7617 13.8911 16.9611 14.0179 17.2501C14.5938 18.559 15.1757 19.8551 15.7635 21.1383C15.7779 21.1688 15.7892 21.1676 15.7976 21.1347C16.5756 18.1528 17.3476 15.1823 18.1137 12.2233C18.1962 11.9037 18.2972 11.6764 18.4168 11.5415C18.9694 10.9182 20.1059 11.1683 20.2665 12.0371C20.95 15.7421 21.6443 19.5298 22.3493 23.4003C22.3673 23.4992 22.3861 23.4995 22.4058 23.4012C22.5482 22.6841 22.6845 21.9351 22.8149 21.1545C22.8872 20.7191 22.9787 20.4271 23.0893 20.2784C23.3124 19.9786 23.6057 19.8278 23.9693 19.826C24.724 19.8218 25.4978 19.8212 26.2908 19.8242C26.3022 19.8242 26.3133 19.8205 26.3225 19.8137C26.3317 19.8069 26.3385 19.7974 26.3419 19.7864C26.7467 18.4991 27.1782 17.1065 27.6363 15.6087C27.8264 14.9854 28.3216 14.5968 28.989 14.7659C29.441 14.8801 29.6518 15.2048 29.7819 15.6249L31.9267 22.5476C31.947 22.6136 31.9691 22.6142 31.993 22.5494C32.6443 20.7812 33.291 19.013 33.9333 17.2447C34.0415 16.9461 34.159 16.7362 34.2858 16.6151C34.7127 16.2068 35.4232 16.187 35.8223 16.6583C35.9228 16.777 36.0074 16.9134 36.0762 17.0675C36.4888 17.9981 36.8946 18.9029 37.2934 19.782C37.2985 19.7933 37.3067 19.8029 37.317 19.8097C37.3273 19.8166 37.3394 19.8204 37.3517 19.8206C39.4196 19.829 41.5156 19.8272 43.6398 19.8152C44.1038 19.8122 44.4142 19.8473 44.5708 19.9205C45.6177 20.4061 45.2759 21.9792 44.1349 21.981C41.7249 21.9834 39.219 21.9831 36.6171 21.9801C36.0574 21.9801 35.7407 21.6311 35.5254 21.1131C35.41 20.8343 35.2853 20.5572 35.1514 20.282C35.14 20.2598 35.1299 20.2604 35.1209 20.2838C34.4194 22.1714 33.7201 24.0824 33.0228 26.0167C32.8835 26.4052 32.7495 26.6589 32.6209 26.7776C32.0002 27.3514 31.079 27.0816 30.8287 26.2766C30.1344 24.0383 29.4357 21.7849 28.7324 19.5166C28.7157 19.4633 28.6992 19.4633 28.6831 19.5166C28.5109 20.0743 28.3383 20.6259 28.1655 21.1715C27.9395 21.883 27.4309 22.0035 26.7366 21.9891C26.0961 21.9771 25.479 21.9762 24.8852 21.9864C24.8784 21.9863 24.8718 21.9887 24.8665 21.9932C24.8613 21.9976 24.8577 22.0038 24.8564 22.0107C24.4008 24.4679 23.9448 26.9635 23.4885 29.4974C23.3997 29.9894 23.2463 30.3483 22.7772 30.5344C22.1143 30.798 21.4362 30.3788 21.3106 29.689C20.5553 25.5607 19.8048 21.4519 19.0591 17.3625Z" stroke="#575656"/>
</g>
<g id="Vector_3">
<path d="M22.6475 39.3211C26.0418 36.6972 29.1553 33.8791 31.988 30.8666C33.8807 28.8526 35.5477 26.804 36.9888 24.7209C37.1138 24.5405 37.2451 24.4052 37.3826 24.3153C37.937 23.9528 38.6645 24.1858 38.9344 24.7812C39.1659 25.2939 38.9703 25.6689 38.6465 26.1258C37.2418 28.1111 35.7492 29.9633 34.1687 31.6824C30.8617 35.2801 27.2282 38.5725 23.2682 41.5598C22.9758 41.7804 22.6421 41.8353 22.2672 41.7244C22.0565 41.6619 21.859 41.5046 21.6732 41.3568C21.6265 41.3196 21.5805 41.2829 21.5352 41.2486C19.194 39.4707 16.8938 37.507 14.6346 35.3574C11.6099 32.4793 8.80761 29.3511 6.41081 25.9127C6.1746 25.5745 6.11211 25.2333 6.22333 24.8891C6.50141 24.0248 7.63343 23.8935 8.13665 24.6175C10.3451 27.7942 12.9168 30.711 15.6993 33.3895C17.876 35.4863 20.1592 37.4635 22.5488 39.3211C22.5817 39.3463 22.6146 39.3463 22.6475 39.3211Z" fill="#575656"/>
<path d="M22.6475 39.3211C26.0418 36.6972 29.1553 33.8791 31.988 30.8666C33.8807 28.8526 35.5477 26.804 36.9888 24.7209C37.1138 24.5405 37.2451 24.4052 37.3826 24.3153C37.937 23.9528 38.6645 24.1858 38.9344 24.7812C39.1659 25.2939 38.9703 25.6689 38.6465 26.1258C37.2418 28.1111 35.7492 29.9633 34.1687 31.6824C30.8617 35.2801 27.2282 38.5725 23.2682 41.5598C22.9758 41.7804 22.6421 41.8353 22.2672 41.7244C22.0565 41.6619 21.859 41.5046 21.6732 41.3568C21.6265 41.3196 21.5805 41.2829 21.5352 41.2486C19.194 39.4707 16.8938 37.507 14.6346 35.3574C11.6099 32.4793 8.80761 29.3511 6.41081 25.9127C6.1746 25.5745 6.11211 25.2333 6.22333 24.8891C6.50141 24.0248 7.63343 23.8935 8.13665 24.6175C10.3451 27.7942 12.9168 30.711 15.6993 33.3895C17.876 35.4863 20.1592 37.4635 22.5488 39.3211C22.5817 39.3463 22.6146 39.3463 22.6475 39.3211Z" stroke="#575656"/>
</g>
</g>
</svg>
