<svg width="61" height="47" viewBox="0 0 61 47" fill="none" xmlns="http://www.w3.org/2000/svg">
<g id="Group">
<g id="Vector">
<path d="M56.9933 31.4846H41.7301C41.2673 31.4846 40.8959 31.1114 40.8959 30.653C40.8959 30.1946 41.2702 29.8214 41.7301 29.8214H56.1444C55.7582 17.7095 46.9505 7.45463 34.9179 5.26261C34.5347 5.19209 34.2488 4.86593 34.234 4.47807C34.1692 2.90017 32.8781 1.66606 31.2922 1.66606H29.1905C27.6135 1.66606 26.3224 2.9031 26.2487 4.481C26.231 4.86887 25.948 5.19209 25.5648 5.26261C13.5382 7.45169 4.73334 17.7066 4.34719 29.8214H20.1676C20.6304 29.8214 21.0018 30.1946 21.0018 30.653C21.0018 31.1114 20.6274 31.4846 20.1676 31.4846H3.49825C3.03546 31.4846 2.66406 31.1114 2.66406 30.653C2.66406 17.5802 11.8757 6.36156 24.6599 3.74054C25.0696 1.59553 26.9473 0 29.1935 0H31.2952C33.5502 0 35.4279 1.59553 35.8317 3.74054C48.6189 6.36156 57.8334 17.5802 57.8334 30.653C57.8334 31.1143 57.459 31.4846 56.9992 31.4846H56.9933Z" fill="#575656"/>
<path d="M56.9933 31.4846H41.7301C41.2673 31.4846 40.8959 31.1114 40.8959 30.653C40.8959 30.1946 41.2702 29.8214 41.7301 29.8214H56.1444C55.7582 17.7095 46.9505 7.45463 34.9179 5.26261C34.5347 5.19209 34.2488 4.86593 34.234 4.47807C34.1692 2.90017 32.8781 1.66606 31.2922 1.66606H29.1905C27.6135 1.66606 26.3224 2.9031 26.2487 4.481C26.231 4.86887 25.948 5.19209 25.5648 5.26261C13.5382 7.45169 4.73334 17.7066 4.34719 29.8214H20.1676C20.6304 29.8214 21.0018 30.1946 21.0018 30.653C21.0018 31.1114 20.6274 31.4846 20.1676 31.4846H3.49825C3.03546 31.4846 2.66406 31.1114 2.66406 30.653C2.66406 17.5802 11.8757 6.36156 24.6599 3.74054C25.0696 1.59553 26.9473 0 29.1935 0H31.2952C33.5502 0 35.4279 1.59553 35.8317 3.74054C48.6189 6.36156 57.8334 17.5802 57.8334 30.653C57.8334 31.1143 57.459 31.4846 56.9992 31.4846H56.9933Z" stroke="#575656"/>
</g>
<g id="Vector_2">
<path d="M56.082 38.5923H41.5764C41.1136 38.5923 40.7422 38.2191 40.7422 37.7607C40.7422 37.3023 41.1165 36.9292 41.5764 36.9292H56.082C57.5854 36.9292 58.8057 35.7127 58.8057 34.2141C58.8057 32.7156 57.5854 31.4873 56.082 31.4873H41.7297C41.2669 31.4873 40.8955 31.1141 40.8955 30.6558C40.8955 30.1974 41.2698 29.8242 41.7297 29.8242H56.082C58.5051 29.8242 60.4771 31.7958 60.4771 34.2171C60.4771 36.6383 58.5051 38.5982 56.082 38.5982V38.5923Z" fill="#575656"/>
<path d="M56.082 38.5923H41.5764C41.1136 38.5923 40.7422 38.2191 40.7422 37.7607C40.7422 37.3023 41.1165 36.9292 41.5764 36.9292H56.082C57.5854 36.9292 58.8057 35.7127 58.8057 34.2141C58.8057 32.7156 57.5854 31.4873 56.082 31.4873H41.7297C41.2669 31.4873 40.8955 31.1141 40.8955 30.6558C40.8955 30.1974 41.2698 29.8242 41.7297 29.8242H56.082C58.5051 29.8242 60.4771 31.7958 60.4771 34.2171C60.4771 36.6383 58.5051 38.5982 56.082 38.5982V38.5923Z" stroke="#575656"/>
</g>
<g id="Vector_3">
<path d="M20.3215 38.5923H4.40685C1.97793 38.5923 0 36.6266 0 34.2112C0 33.0388 0.456896 31.934 1.2911 31.1054C2.12235 30.2767 3.23071 29.8184 4.40685 29.8184H20.1653C20.6281 29.8184 20.9995 30.1915 20.9995 30.6499C20.9995 31.1083 20.6251 31.4815 20.1653 31.4815H4.40685C3.67582 31.4815 2.98898 31.7636 2.47313 32.2778C1.95728 32.792 1.67431 33.4766 1.67431 34.2053C1.67431 35.7039 2.90057 36.9204 4.4098 36.9204H20.3245C20.7873 36.9204 21.1587 37.2936 21.1587 37.7519C21.1587 38.2103 20.7843 38.5835 20.3245 38.5835L20.3215 38.5923Z" fill="#575656"/>
<path d="M20.3215 38.5923H4.40685C1.97793 38.5923 0 36.6266 0 34.2112C0 33.0388 0.456896 31.934 1.2911 31.1054C2.12235 30.2767 3.23071 29.8184 4.40685 29.8184H20.1653C20.6281 29.8184 20.9995 30.1915 20.9995 30.6499C20.9995 31.1083 20.6251 31.4815 20.1653 31.4815H4.40685C3.67582 31.4815 2.98898 31.7636 2.47313 32.2778C1.95728 32.792 1.67431 33.4766 1.67431 34.2053C1.67431 35.7039 2.90057 36.9204 4.4098 36.9204H20.3245C20.7873 36.9204 21.1587 37.2936 21.1587 37.7519C21.1587 38.2103 20.7843 38.5835 20.3245 38.5835L20.3215 38.5923Z" stroke="#575656"/>
</g>
<g id="Vector_4">
<path d="M30.9481 46.0498C24.2686 46.0498 18.8359 40.6344 18.8359 33.9761C18.8359 27.3178 24.2686 21.9023 30.9481 21.9023C37.6276 21.9023 43.0602 27.3178 43.0602 33.9761C43.0602 40.6344 37.6276 46.0498 30.9481 46.0498ZM30.9481 23.5684C25.1912 23.5684 20.5073 28.2375 20.5073 33.9761C20.5073 39.7147 25.1912 44.3838 30.9481 44.3838C36.705 44.3838 41.3889 39.7147 41.3889 33.9761C41.3889 28.2375 36.705 23.5684 30.9481 23.5684Z" fill="#575656"/>
<path d="M30.9481 46.0498C24.2686 46.0498 18.8359 40.6344 18.8359 33.9761C18.8359 27.3178 24.2686 21.9023 30.9481 21.9023C37.6276 21.9023 43.0602 27.3178 43.0602 33.9761C43.0602 40.6344 37.6276 46.0498 30.9481 46.0498ZM30.9481 23.5684C25.1912 23.5684 20.5073 28.2375 20.5073 33.9761C20.5073 39.7147 25.1912 44.3838 30.9481 44.3838C36.705 44.3838 41.3889 39.7147 41.3889 33.9761C41.3889 28.2375 36.705 23.5684 30.9481 23.5684Z" stroke="#575656"/>
</g>
<g id="Vector_5">
<path d="M30.9477 40.0918C27.5666 40.0918 24.8164 37.3503 24.8164 33.977C24.8164 30.6038 27.5666 27.8652 30.9477 27.8652C34.3287 27.8652 37.0789 30.6067 37.0789 33.977C37.0789 37.3473 34.3287 40.0918 30.9477 40.0918ZM30.9477 29.5313C28.4863 29.5313 26.4878 31.5264 26.4878 33.977C26.4878 36.4276 28.4893 38.4257 30.9477 38.4257C33.406 38.4257 35.4075 36.4306 35.4075 33.977C35.4075 31.5235 33.406 29.5313 30.9477 29.5313Z" fill="#575656"/>
<path d="M30.9477 40.0918C27.5666 40.0918 24.8164 37.3503 24.8164 33.977C24.8164 30.6038 27.5666 27.8652 30.9477 27.8652C34.3287 27.8652 37.0789 30.6067 37.0789 33.977C37.0789 37.3473 34.3287 40.0918 30.9477 40.0918ZM30.9477 29.5313C28.4863 29.5313 26.4878 31.5264 26.4878 33.977C26.4878 36.4276 28.4893 38.4257 30.9477 38.4257C33.406 38.4257 35.4075 36.4306 35.4075 33.977C35.4075 31.5235 33.406 29.5313 30.9477 29.5313Z" stroke="#575656"/>
</g>
<g id="Group_2">
<g id="Vector_6">
<path d="M25.8283 18.4769C25.3655 18.4769 24.9941 18.1037 24.9941 17.6453V9.61769C24.9941 9.15637 25.3685 8.78613 25.8283 8.78613C26.2882 8.78613 26.6626 9.15931 26.6626 9.61769V17.6453C26.6626 18.1066 26.2882 18.4769 25.8283 18.4769Z" fill="#575656"/>
<path d="M25.8283 18.4769C25.3655 18.4769 24.9941 18.1037 24.9941 17.6453V9.61769C24.9941 9.15637 25.3685 8.78613 25.8283 8.78613C26.2882 8.78613 26.6626 9.15931 26.6626 9.61769V17.6453C26.6626 18.1066 26.2882 18.4769 25.8283 18.4769Z" stroke="#575656"/>
</g>
<g id="Vector_7">
<path d="M35.3049 18.4769C34.8421 18.4769 34.4707 18.1037 34.4707 17.6453V9.61769C34.4707 9.15637 34.8451 8.78613 35.3049 8.78613C35.7647 8.78613 36.1391 9.15931 36.1391 9.61769V17.6453C36.1391 18.1066 35.7647 18.4769 35.3049 18.4769Z" fill="#575656"/>
<path d="M35.3049 18.4769C34.8421 18.4769 34.4707 18.1037 34.4707 17.6453V9.61769C34.4707 9.15637 34.8451 8.78613 35.3049 8.78613C35.7647 8.78613 36.1391 9.15931 36.1391 9.61769V17.6453C36.1391 18.1066 35.7647 18.4769 35.3049 18.4769Z" stroke="#575656"/>
</g>
</g>
</g>
</svg>
