<svg width="21" height="47" viewBox="0 0 21 47" fill="none" xmlns="http://www.w3.org/2000/svg">
<g id="Group">
<g id="Vector">
<path d="M10.435 46.05C4.68061 46.05 0 41.3212 0 35.5075V10.5425C0 4.7288 4.68061 0 10.435 0C16.1894 0 20.8731 4.7288 20.8731 10.5425V35.5075C20.8731 41.3212 16.1894 46.05 10.435 46.05ZM10.435 1.80601C5.66915 1.80601 1.79073 5.72434 1.79073 10.5393V35.5043C1.79073 40.3193 5.66915 44.2376 10.435 44.2376C15.2009 44.2376 19.0824 40.3193 19.0824 35.5043V10.5393C19.0824 5.72434 15.204 1.80601 10.435 1.80601Z" fill="#575656"/>
<path d="M10.435 46.05C4.68061 46.05 0 41.3212 0 35.5075V10.5425C0 4.7288 4.68061 0 10.435 0C16.1894 0 20.8731 4.7288 20.8731 10.5425V35.5075C20.8731 41.3212 16.1894 46.05 10.435 46.05ZM10.435 1.80601C5.66915 1.80601 1.79073 5.72434 1.79073 10.5393V35.5043C1.79073 40.3193 5.66915 44.2376 10.435 44.2376C15.2009 44.2376 19.0824 40.3193 19.0824 35.5043V10.5393C19.0824 5.72434 15.204 1.80601 10.435 1.80601Z" stroke="#575656"/>
</g>
<g id="Vector_2">
<path d="M11.2846 41.5894C7.49461 41.5894 4.41211 38.4752 4.41211 34.6462C4.41211 34.1452 4.81324 33.7432 5.30593 33.7432C5.79863 33.7432 6.19968 34.1484 6.19968 34.6462C6.19968 37.4764 8.47999 39.7802 11.2814 39.7802C11.7773 39.7802 12.1752 40.1854 12.1752 40.6832C12.1752 41.181 11.7741 41.5862 11.2814 41.5862L11.2846 41.5894Z" fill="#575656"/>
<path d="M11.2846 41.5894C7.49461 41.5894 4.41211 38.4752 4.41211 34.6462C4.41211 34.1452 4.81324 33.7432 5.30593 33.7432C5.79863 33.7432 6.19968 34.1484 6.19968 34.6462C6.19968 37.4764 8.47999 39.7802 11.2814 39.7802C11.7773 39.7802 12.1752 40.1854 12.1752 40.6832C12.1752 41.181 11.7741 41.5862 11.2814 41.5862L11.2846 41.5894Z" stroke="#575656"/>
</g>
<g id="Vector_3">
<path d="M10.4352 26.7137C6.94842 26.7137 3.46475 25.7373 0.423315 23.7877C0.00641953 23.5196 -0.116717 22.9612 0.145422 22.54C0.40756 22.1189 0.963392 21.9944 1.38029 22.2624C6.88204 25.7883 13.9882 25.7883 19.4868 22.2624C19.9037 21.9944 20.4564 22.1189 20.7217 22.54C20.987 22.9612 20.8638 23.5196 20.4438 23.7877C17.4024 25.7373 13.9156 26.7137 10.432 26.7137H10.4352Z" fill="#575656"/>
<path d="M10.4352 26.7137C6.94842 26.7137 3.46475 25.7373 0.423315 23.7877C0.00641953 23.5196 -0.116717 22.9612 0.145422 22.54C0.40756 22.1189 0.963392 21.9944 1.38029 22.2624C6.88204 25.7883 13.9882 25.7883 19.4868 22.2624C19.9037 21.9944 20.4564 22.1189 20.7217 22.54C20.987 22.9612 20.8638 23.5196 20.4438 23.7877C17.4024 25.7373 13.9156 26.7137 10.432 26.7137H10.4352Z" stroke="#575656"/>
</g>
</g>
</svg>
