<svg width="60" height="47" viewBox="0 0 60 47" fill="none" xmlns="http://www.w3.org/2000/svg">
<g id="Group">
<g id="Vector">
<path d="M14.8887 28.6855C14.4899 28.6855 14.1699 28.3618 14.1699 27.9642V14.7926C14.1699 14.3924 14.4925 14.0713 14.8887 14.0713C15.2849 14.0713 15.6074 14.395 15.6074 14.7926V27.9642C15.6074 28.3644 15.2849 28.6855 14.8887 28.6855Z" fill="#575656"/>
<path d="M14.8887 28.6855C14.4899 28.6855 14.1699 28.3618 14.1699 27.9642V14.7926C14.1699 14.3924 14.4925 14.0713 14.8887 14.0713C15.2849 14.0713 15.6074 14.395 15.6074 14.7926V27.9642C15.6074 28.3644 15.2849 28.6855 14.8887 28.6855Z" stroke="#575656"/>
</g>
<g id="Vector_2">
<path d="M44.2363 28.6855C43.8376 28.6855 43.5176 28.3618 43.5176 27.9642V14.7926C43.5176 14.3924 43.8401 14.0713 44.2363 14.0713C44.6325 14.0713 44.9551 14.395 44.9551 14.7926V27.9642C44.9551 28.3644 44.6325 28.6855 44.2363 28.6855Z" fill="#575656"/>
<path d="M44.2363 28.6855C43.8376 28.6855 43.5176 28.3618 43.5176 27.9642V14.7926C43.5176 14.3924 43.8401 14.0713 44.2363 14.0713C44.6325 14.0713 44.9551 14.395 44.9551 14.7926V27.9642C44.9551 28.3644 44.6325 28.6855 44.2363 28.6855Z" stroke="#575656"/>
</g>
<g id="Vector_3">
<path d="M44.2347 46.0502H14.8878C14.4891 46.0502 14.169 45.7266 14.169 45.329V20.5123L8.05583 22.0721C7.7663 22.146 7.46153 22.0339 7.29136 21.7892L0.131783 11.6199C0.0174942 11.4568 -0.0256718 11.2554 0.0149644 11.0592C0.0556005 10.8629 0.172421 10.6947 0.340045 10.5877L17.1939 0.109978C17.3082 0.0386149 17.4403 0.00292969 17.5723 0.00292969H20.7115C21.0746 0.00292969 21.382 0.275646 21.4251 0.637561C21.7883 3.59915 25.3617 5.92101 29.56 5.92101C33.7582 5.92101 37.3316 3.59915 37.6974 0.637561C37.7431 0.275646 38.0479 0.00292969 38.411 0.00292969H41.5476C41.6822 0.00292969 41.8118 0.0411636 41.9261 0.109978L58.7799 10.5877C58.9475 10.6922 59.0669 10.8629 59.105 11.0592C59.1456 11.2554 59.1025 11.4568 58.9882 11.6199L51.8311 21.7892C51.6584 22.0339 51.3562 22.1486 51.0667 22.0721L44.9535 20.5123V45.329C44.9535 45.7291 44.6309 46.0502 44.2347 46.0502ZM15.6091 44.6051H43.5185V19.582C43.5185 19.3577 43.6201 19.1487 43.7953 19.0111C43.9706 18.8735 44.1992 18.8251 44.415 18.8811L50.9447 20.5454L57.3754 11.4083L41.3445 1.44295H39.013C38.1901 4.8582 34.2661 7.36102 29.56 7.36102C24.8538 7.36102 20.9299 4.8582 20.1095 1.44295H17.7755L1.74454 11.4083L8.17521 20.5454L14.7075 18.8811C14.9233 18.8276 15.1519 18.8735 15.3272 19.0111C15.5024 19.1487 15.604 19.3577 15.604 19.582V44.6051H15.6091Z" fill="#575656"/>
<path d="M44.2347 46.0502H14.8878C14.4891 46.0502 14.169 45.7266 14.169 45.329V20.5123L8.05583 22.0721C7.7663 22.146 7.46153 22.0339 7.29136 21.7892L0.131783 11.6199C0.0174942 11.4568 -0.0256718 11.2554 0.0149644 11.0592C0.0556005 10.8629 0.172421 10.6947 0.340045 10.5877L17.1939 0.109978C17.3082 0.0386149 17.4403 0.00292969 17.5723 0.00292969H20.7115C21.0746 0.00292969 21.382 0.275646 21.4251 0.637561C21.7883 3.59915 25.3617 5.92101 29.56 5.92101C33.7582 5.92101 37.3316 3.59915 37.6974 0.637561C37.7431 0.275646 38.0479 0.00292969 38.411 0.00292969H41.5476C41.6822 0.00292969 41.8118 0.0411636 41.9261 0.109978L58.7799 10.5877C58.9475 10.6922 59.0669 10.8629 59.105 11.0592C59.1456 11.2554 59.1025 11.4568 58.9882 11.6199L51.8311 21.7892C51.6584 22.0339 51.3562 22.1486 51.0667 22.0721L44.9535 20.5123V45.329C44.9535 45.7291 44.6309 46.0502 44.2347 46.0502ZM15.6091 44.6051H43.5185V19.582C43.5185 19.3577 43.6201 19.1487 43.7953 19.0111C43.9706 18.8735 44.1992 18.8251 44.415 18.8811L50.9447 20.5454L57.3754 11.4083L41.3445 1.44295H39.013C38.1901 4.8582 34.2661 7.36102 29.56 7.36102C24.8538 7.36102 20.9299 4.8582 20.1095 1.44295H17.7755L1.74454 11.4083L8.17521 20.5454L14.7075 18.8811C14.9233 18.8276 15.1519 18.8735 15.3272 19.0111C15.5024 19.1487 15.604 19.3577 15.604 19.582V44.6051H15.6091Z" stroke="#575656"/>
</g>
<g id="Vector_4">
<path d="M29.5624 7.36318C24.5692 7.36318 20.4574 4.54688 19.9977 0.813035C19.9723 0.606591 20.0358 0.400143 20.1729 0.244673C20.3101 0.0892022 20.5056 0 20.7113 0H38.4135C38.6192 0 38.8173 0.0892022 38.9519 0.244673C39.0865 0.400143 39.1525 0.606591 39.1271 0.813035C38.6649 4.54688 34.553 7.36318 29.5599 7.36318H29.5624ZM21.6104 1.44511C22.4638 4.0091 25.7553 5.91808 29.5624 5.91808C33.3695 5.91808 36.661 4.0091 37.5169 1.44511H21.6104Z" fill="#575656"/>
<path d="M29.5624 7.36318C24.5692 7.36318 20.4574 4.54688 19.9977 0.813035C19.9723 0.606591 20.0358 0.400143 20.1729 0.244673C20.3101 0.0892022 20.5056 0 20.7113 0H38.4135C38.6192 0 38.8173 0.0892022 38.9519 0.244673C39.0865 0.400143 39.1525 0.606591 39.1271 0.813035C38.6649 4.54688 34.553 7.36318 29.5599 7.36318H29.5624ZM21.6104 1.44511C22.4638 4.0091 25.7553 5.91808 29.5624 5.91808C33.3695 5.91808 36.661 4.0091 37.5169 1.44511H21.6104Z" stroke="#575656"/>
</g>
</g>
</svg>
